# xmcd
#
# Track frame offsets: 
#        150
#        18061
#        32732
#        45758
#        62298
#        80214
#        96068
#        118783
#        136802
#        147064
#        161591
#
# Disc length: 2411 seconds
#
# Revision: 0
# Processed by: cddbd v1.5.2PL0 Copyright (c) Steve Scherf et al.
# Submitted via: ExactAudioCopy v0.95b4
#
DISCID=7e09690b
DTITLE=Ricky Skaggs and Kentucky Thunder - Music to My Ears
DYEAR=2012
DGENRE=Bluegrass
TTITLE0=01 Blue Night
TTITLE1=02 Things in Life
TTITLE2=03 You Can't Hurt Ham
TTITLE3=04  Music to My Ears
TTITLE4=05 What You Are Waiting For
TTITLE5=06 New Jerusalem
TTITLE6=07 Soldier's Son
TTITLE7=08 Tennessee Stud ( Tribute to Doc Watson )
TTITLE8=09 Loving You Too Well
TTITLE9=10 You Are Something Else
TTITLE10=11 Nothing Beats A Family
EXTD=
EXTT0=
EXTT1=
EXTT2=
EXTT3=
EXTT4=
EXTT5=
EXTT6=
EXTT7=
EXTT8=
EXTT9=
EXTT10=
PLAYORDER=
